<svg version="1.2" xmlns="http://www.w3.org/2000/svg" viewBox="0 0 1500 1000" width="1500" height="1000">
	<title>5137888-ai</title>
	<defs>
		<clipPath clipPathUnits="userSpaceOnUse" id="cp1">
			<path d="m1500 1000h-1500v-1000h1500z"/>
		</clipPath>
		<clipPath clipPathUnits="userSpaceOnUse" id="cp2">
			<path d="m1500 1000h-1092.24v-899.34h1092.24z"/>
		</clipPath>
		<clipPath clipPathUnits="userSpaceOnUse" id="cp3">
			<path d="m841.83 851.33h-841.83v-851.33h841.83z"/>
		</clipPath>
	</defs>
	<style>
		.s0 { fill: #0a0a0a } 
		.s1 { fill: #1e1e1e } 
		.s2 { opacity: .2;mix-blend-mode: overlay;fill: #fbfbfb } 
		.s3 { fill: #262626 } 
		.s4 { fill: #fbfbfb } 
	</style>
	<g id="OBJECTS" style="opacity: .5">
		<g id="&lt;Clip Group&gt;" clip-path="url(#cp1)">
			<g id="&lt;Group&gt;" style="opacity: .2;mix-blend-mode: multiply">
				<g id="&lt;Group&gt;">
					<path id="&lt;Compound Path&gt;" fill-rule="evenodd" class="s0" d="m179.2 675.6c-3.9 0-7.7-1-11.2-3l-82.3-47.5c-6.9-4-11.2-11.4-11.2-19.4v-95.1c0-8 4.3-15.4 11.2-19.4l82.3-47.5c6.9-4 15.5-4 22.4 0l82.4 47.5c6.9 4 11.2 11.4 11.2 19.4v95.1c0 8-4.3 15.4-11.2 19.4l-82.4 47.5c-3.4 2-7.3 3-11.2 3zm0-228.6c-2.8 0-5.5 0.7-8 2.1l-82.4 47.6c-4.9 2.8-8 8.2-8 13.9v95.1c0 5.7 3.1 11.1 8 13.9l82.4 47.6c4.9 2.8 11.1 2.8 16.1 0l82.3-47.6c5-2.8 8.1-8.2 8.1-13.9v-95.1c0-5.7-3.1-11.1-8.1-13.9l-82.3-47.6c-2.5-1.4-5.3-2.1-8.1-2.1z"/>
				</g>
				<g id="&lt;Group&gt;">
					<path id="&lt;Compound Path&gt;" fill-rule="evenodd" class="s0" d="m-75.2 1010.5c-3.9 0-7.8-1-11.2-3l-82.4-47.5c-6.9-4-11.2-11.4-11.2-19.4v-95.1c0-8 4.3-15.4 11.2-19.4l82.4-47.6c6.9-3.9 15.5-3.9 22.4 0l82.3 47.6c6.9 4 11.2 11.4 11.2 19.4v95.1c0 8-4.3 15.4-11.2 19.4l-82.3 47.5c-3.5 2-7.3 3-11.2 3zm0-228.6c-2.8 0-5.6 0.7-8.1 2.1l-82.3 47.6c-5 2.8-8 8.2-8 13.9v95.1c0 5.7 3 11 8 13.9l82.3 47.6c5 2.8 11.2 2.8 16.1 0l82.4-47.6c4.9-2.9 8-8.2 8-13.9v-95.1c0-5.7-3.1-11.1-8-13.9l-82.4-47.6c-2.4-1.4-5.2-2.1-8-2.1z"/>
				</g>
				<g id="&lt;Group&gt;">
					<path id="&lt;Compound Path&gt;" fill-rule="evenodd" class="s0" d="m1439.8 397.9c-2.8 0-5.7-0.7-8.2-2.2l-57.5-33.2c-5.1-2.9-8.3-8.4-8.3-14.3v-66.4c0-5.9 3.2-11.4 8.3-14.3l57.5-33.2c5.1-3 11.4-3 16.5 0l57.5 33.2c5.1 2.9 8.3 8.4 8.3 14.3v66.4c0 5.9-3.2 11.4-8.3 14.3l-57.5 33.2c-2.5 1.5-5.4 2.2-8.3 2.2zm0-159.5c-1.7 0-3.5 0.4-5.1 1.4l-57.4 33.1c-3.2 1.9-5.2 5.3-5.2 8.9v66.4c0 3.6 2 7 5.2 8.9l57.4 33.1c3.2 1.9 7.1 1.9 10.3 0l57.4-33.1c3.2-1.9 5.2-5.3 5.2-8.9v-66.4c0-3.6-2-7-5.2-8.9l-57.4-33.1c-1.6-1-3.4-1.4-5.2-1.4z"/>
				</g>
				<g id="&lt;Group&gt;">
					<path id="&lt;Compound Path&gt;" fill-rule="evenodd" class="s0" d="m606.8 179.7c-2.9 0-5.8-0.8-8.3-2.2l-57.5-33.2c-5.1-3-8.3-8.5-8.3-14.4v-66.3c0-5.9 3.2-11.4 8.3-14.4l57.5-33.2c5.1-2.9 11.4-2.9 16.5 0l57.5 33.2c5.1 3 8.3 8.5 8.3 14.4v66.3c0 5.9-3.2 11.4-8.3 14.4l-57.5 33.2c-2.5 1.4-5.4 2.2-8.2 2.2zm0-159.6c-1.8 0-3.6 0.5-5.2 1.4l-57.4 33.2c-3.2 1.8-5.2 5.2-5.2 8.9v66.3c0 3.7 2 7.1 5.2 8.9l57.4 33.2c3.2 1.8 7.1 1.8 10.3 0l57.4-33.2c3.2-1.8 5.2-5.2 5.2-8.9v-66.3c0-3.7-2-7.1-5.2-8.9l-57.4-33.2c-1.6-0.9-3.4-1.4-5.1-1.4z"/>
				</g>
				<g id="&lt;Group&gt;">
					<path id="&lt;Compound Path&gt;" fill-rule="evenodd" class="s0" d="m1276.9 446.6c-1.5 0-2.9-0.3-4.2-1.1l-21.7-12.5c-2.6-1.5-4.1-4.2-4.1-7.1v-25.2c0-2.9 1.5-5.6 4.1-7.1l21.7-12.6c2.6-1.4 5.7-1.4 8.3 0l21.7 12.6c2.6 1.5 4.1 4.2 4.1 7.1v25.2c0 2.9-1.5 5.6-4.1 7.1l-21.7 12.5c-1.3 0.8-2.7 1.1-4.1 1.1zm0-60.3q-0.5 0-1 0.2l-21.8 12.6c-0.5 0.3-0.9 1-0.9 1.6v25.2c0 0.6 0.4 1.3 0.9 1.6l21.8 12.6c0.6 0.3 1.3 0.3 1.9 0l21.8-12.6c0.6-0.3 0.9-1 0.9-1.6v-25.2c0-0.6-0.3-1.3-0.9-1.6l-21.8-12.6q-0.4-0.2-0.9-0.2z"/>
				</g>
				<g id="&lt;Group&gt;">
					<path id="&lt;Compound Path&gt;" fill-rule="evenodd" class="s0" d="m1131.7 1018.8c-7 0-14-1.8-20.2-5.4l-159.3-92c-12.5-7.2-20.2-20.6-20.2-34.9v-184c0-14.4 7.7-27.8 20.2-35l159.3-91.9c12.4-7.2 27.9-7.2 40.4 0l159.3 91.9c12.4 7.2 20.2 20.6 20.2 35v184c0 14.3-7.8 27.7-20.2 34.9l-159.3 92c-6.3 3.6-13.3 5.4-20.2 5.4zm0-442.3c-5.9 0-11.8 1.5-17.1 4.5l-159.3 92c-10.5 6.1-17 17.4-17 29.5v184c0 12.1 6.5 23.4 17 29.5l159.3 91.9c10.5 6.1 23.6 6.1 34.1 0l159.3-91.9c10.5-6.1 17-17.4 17-29.5v-184c0-12.1-6.5-23.4-17-29.5l-159.3-92c-5.3-3-11.1-4.5-17-4.5z"/>
				</g>
				<g id="&lt;Group&gt;">
					<path id="&lt;Compound Path&gt;" fill-rule="evenodd" class="s0" d="m263.7 427.1c-7 0-13.9-1.8-20.2-5.4l-159.3-92c-12.4-7.2-20.2-20.6-20.2-35v-183.9c0-14.4 7.8-27.8 20.2-35l159.3-92c12.5-7.2 28-7.1 40.4 0l159.3 92c12.5 7.2 20.2 20.6 20.2 35v183.9c0 14.4-7.7 27.8-20.2 35l-159.3 92c-6.2 3.6-13.2 5.4-20.2 5.4zm0-442.3c-5.9 0-11.8 1.5-17 4.5l-159.3 92c-10.5 6.1-17.1 17.4-17.1 29.5v183.9c0 12.2 6.6 23.5 17.1 29.6l159.3 91.9c10.5 6.1 23.6 6.1 34.1 0l159.3-91.9c10.5-6.1 17-17.4 17-29.6v-183.9c0-12.1-6.5-23.4-17-29.5l-159.3-92c-5.3-3-11.2-4.5-17.1-4.5z"/>
				</g>
				<g id="&lt;Group&gt;">
					<path id="&lt;Path&gt;" class="s0" d="m850.9 918.8v35c0 2.6 1.4 4.9 3.6 6.2l30.3 17.5c2.2 1.3 4.9 1.3 7.1 0l30.4-17.5c2.2-1.3 3.5-3.6 3.5-6.2v-35c0-2.6-1.3-4.9-3.5-6.2l-30.4-17.5c-2.2-1.3-4.9-1.3-7.1 0l-30.3 17.5c-2.2 1.3-3.6 3.6-3.6 6.2z"/>
				</g>
				<g id="&lt;Group&gt;">
					<path id="&lt;Path&gt;" class="s0" d="m336.4 154.6v35c0 2.6 1.3 4.9 3.5 6.2l30.4 17.5c2.2 1.3 4.9 1.3 7.1 0l30.4-17.5c2.2-1.3 3.5-3.6 3.5-6.2v-35c0-2.6-1.3-4.9-3.5-6.2l-30.4-17.5c-2.2-1.3-4.9-1.3-7.1 0l-30.4 17.5c-2.2 1.3-3.5 3.6-3.5 6.2z"/>
				</g>
				<g id="&lt;Group&gt;">
					<path id="&lt;Path&gt;" class="s0" d="m277.7 327.6v24.6c0 1.8 0.9 3.5 2.4 4.4l21.4 12.3c1.6 0.9 3.5 0.9 5 0l21.4-12.3c1.5-0.9 2.5-2.6 2.5-4.4v-24.6c0-1.8-1-3.5-2.5-4.3l-21.4-12.4c-1.5-0.9-3.4-0.9-5 0l-21.4 12.4c-1.5 0.8-2.4 2.5-2.4 4.3z"/>
				</g>
				<g id="&lt;Group&gt;">
					<path id="&lt;Path&gt;" class="s0" d="m1123.7 472.6v24.6c0 1.8 1 3.5 2.5 4.4l21.4 12.3c1.5 0.9 3.4 0.9 5 0l21.4-12.3c1.5-0.9 2.4-2.6 2.4-4.4v-24.6c0-1.8-0.9-3.5-2.4-4.3l-21.4-12.4c-1.6-0.9-3.5-0.9-5 0l-21.4 12.4c-1.5 0.8-2.5 2.5-2.5 4.3z"/>
				</g>
				<g id="&lt;Group&gt;">
					<path id="&lt;Path&gt;" class="s0" d="m491.4 177v24.7c0 1.8 0.9 3.4 2.4 4.3l21.4 12.3c1.6 0.9 3.5 0.9 5 0l21.4-12.3c1.5-0.9 2.5-2.5 2.5-4.3v-24.7c0-1.8-1-3.4-2.5-4.3l-21.4-12.4c-1.5-0.9-3.4-0.9-5 0l-21.4 12.4c-1.5 0.9-2.4 2.5-2.4 4.3z"/>
				</g>
				<g id="&lt;Group&gt;">
					<path id="&lt;Path&gt;" class="s0" d="m521 227.6v24.6c0 1.8 0.9 3.5 2.5 4.4l21.3 12.3c1.6 0.9 3.5 0.9 5 0l21.4-12.3c1.6-0.9 2.5-2.6 2.5-4.4v-24.6c0-1.8-0.9-3.5-2.5-4.3l-21.4-12.4c-1.5-0.9-3.4-0.9-5 0l-21.3 12.4c-1.6 0.8-2.5 2.5-2.5 4.3z"/>
				</g>
				<g id="&lt;Group&gt;">
					<path id="&lt;Path&gt;" class="s0" d="m550.6 177v24.7c0 1.8 0.9 3.4 2.5 4.3l21.3 12.3c1.6 0.9 3.5 0.9 5 0l21.4-12.3c1.5-0.9 2.5-2.5 2.5-4.3v-24.7c0-1.8-1-3.4-2.5-4.3l-21.4-12.4c-1.5-0.9-3.4-0.9-5 0l-21.3 12.4c-1.6 0.9-2.5 2.5-2.5 4.3z"/>
				</g>
				<g id="&lt;Group&gt;">
					<path id="&lt;Path&gt;" class="s0" d="m136.5 497.7v18.8c0 1.4 0.7 2.7 1.9 3.3l16.3 9.5c1.2 0.6 2.6 0.6 3.8 0l16.3-9.5c1.2-0.6 1.9-1.9 1.9-3.3v-18.8c0-1.4-0.7-2.6-1.9-3.3l-16.3-9.4c-1.2-0.7-2.6-0.7-3.8 0l-16.3 9.4c-1.2 0.7-1.9 1.9-1.9 3.3z"/>
				</g>
				<g id="&lt;Group&gt;">
					<path id="&lt;Path&gt;" class="s0" d="m159.1 536.3v18.8c0 1.4 0.7 2.7 1.9 3.4l16.3 9.4c1.2 0.6 2.7 0.6 3.8 0l16.4-9.4c1.1-0.7 1.9-2 1.9-3.4v-18.8c0-1.3-0.8-2.6-1.9-3.3l-16.4-9.4c-1.1-0.7-2.6-0.7-3.8 0l-16.3 9.4c-1.2 0.7-1.9 2-1.9 3.3z"/>
				</g>
				<g id="&lt;Group&gt;">
					<path id="&lt;Path&gt;" class="s0" d="m181.7 497.7v18.8c0 1.4 0.7 2.7 1.9 3.3l16.3 9.5c1.2 0.6 2.6 0.6 3.8 0l16.3-9.5c1.2-0.6 1.9-1.9 1.9-3.3v-18.8c0-1.4-0.7-2.6-1.9-3.3l-16.3-9.4c-1.2-0.7-2.6-0.7-3.8 0l-16.3 9.4c-1.2 0.7-1.9 1.9-1.9 3.3z"/>
				</g>
				<g id="&lt;Group&gt;">
					<path id="&lt;Path&gt;" class="s0" d="m1286.5 421.3v52.6c0 3.8 2.1 7.3 5.4 9.2l45.5 26.3c3.3 1.9 7.4 1.9 10.6 0l45.6-26.3c3.3-1.9 5.3-5.4 5.3-9.2v-52.6c0-3.8-2-7.3-5.3-9.2l-45.6-26.3c-3.2-1.9-7.3-1.9-10.6 0l-45.5 26.3c-3.3 1.9-5.4 5.4-5.4 9.2z"/>
				</g>
				<g id="&lt;Group&gt;">
					<path id="&lt;Compound Path&gt;" fill-rule="evenodd" class="s0" d="m54.8 805.3c-1.5 0-2.9-0.4-4.2-1.1l-21.7-12.6c-2.5-1.4-4.1-4.2-4.1-7.1v-25.1c0-2.9 1.6-5.7 4.1-7.1l21.7-12.6c2.6-1.5 5.7-1.5 8.3 0l21.7 12.6c2.6 1.4 4.2 4.2 4.2 7.1v25.1c0 2.9-1.6 5.7-4.2 7.1l-21.7 12.6c-1.3 0.7-2.7 1.1-4.1 1.1zm0-60.4q-0.5 0-1 0.3l-21.7 12.5c-0.6 0.4-1 1-1 1.7v25.1c0 0.7 0.4 1.3 1 1.7l21.7 12.5c0.6 0.4 1.3 0.4 1.9 0l21.8-12.5c0.6-0.4 0.9-1 0.9-1.7v-25.1c0-0.7-0.3-1.3-0.9-1.7l-21.8-12.5q-0.4-0.3-0.9-0.3z"/>
				</g>
				<g id="&lt;Group&gt;">
					<path id="&lt;Path&gt;" class="s0" d="m461.3-4.9v52.6c0 3.8 2.1 7.3 5.4 9.2l45.5 26.3c3.3 1.9 7.3 1.9 10.6 0l45.6-26.3c3.3-1.9 5.3-5.4 5.3-9.2v-52.6c0-3.8-2-7.3-5.3-9.2l-45.6-26.3c-3.3-1.9-7.3-1.9-10.6 0l-45.5 26.3c-3.3 1.9-5.4 5.4-5.4 9.2z"/>
				</g>
				<g id="&lt;Group&gt;">
					<path id="&lt;Path&gt;" class="s0" d="m968.8 786.7v69.6c0 5 2.7 9.7 7 12.2l60.3 34.8c4.4 2.5 9.7 2.5 14.1 0l60.2-34.8c4.4-2.5 7.1-7.2 7.1-12.2v-69.6c0-5-2.7-9.6-7.1-12.2l-60.2-34.7c-4.4-2.6-9.7-2.6-14.1 0l-60.3 34.7c-4.3 2.6-7 7.2-7 12.2z"/>
				</g>
				<g id="&lt;Group&gt;">
					<path id="&lt;Path&gt;" class="s0" d="m523.5 952.5v69.6c0 5 2.7 9.7 7 12.2l60.3 34.8c4.4 2.5 9.7 2.5 14.1 0l60.2-34.8c4.4-2.5 7.1-7.2 7.1-12.2v-69.6c0-5-2.7-9.7-7.1-12.2l-60.2-34.8c-4.4-2.5-9.7-2.5-14.1 0l-60.3 34.8c-4.3 2.5-7 7.2-7 12.2z"/>
				</g>
				<g id="&lt;Group&gt;">
					<path id="&lt;Path&gt;" class="s0" d="m385.9 280.2v69.6c0 5 2.7 9.6 7.1 12.2l60.2 34.7c4.4 2.6 9.8 2.6 14.1 0l60.3-34.7c4.3-2.6 7-7.2 7-12.2v-69.6c0-5-2.7-9.7-7-12.2l-60.3-34.8c-4.3-2.5-9.7-2.5-14.1 0l-60.2 34.8c-4.4 2.5-7.1 7.2-7.1 12.2z"/>
				</g>
				<g id="&lt;Group&gt;">
					<path id="&lt;Path&gt;" class="s0" d="m6.7 9.7v69.5c0 5.1 2.7 9.7 7.1 12.2l60.2 34.8c4.4 2.5 9.8 2.5 14.1 0l60.3-34.8c4.3-2.5 7-7.1 7-12.2v-69.5c0-5.1-2.7-9.7-7-12.2l-60.3-34.8c-4.3-2.5-9.7-2.5-14.1 0l-60.2 34.8c-4.4 2.5-7.1 7.1-7.1 12.2z"/>
				</g>
				<g id="&lt;Group&gt;">
					<path id="&lt;Path&gt;" class="s0" d="m170 9.7v69.5c0 5.1 2.7 9.7 7.1 12.2l60.2 34.8c4.4 2.5 9.7 2.5 14.1 0l60.3-34.8c4.3-2.5 7-7.1 7-12.2v-69.5c0-5.1-2.7-9.7-7-12.2l-60.3-34.8c-4.4-2.5-9.7-2.5-14.1 0l-60.2 34.8c-4.4 2.5-7.1 7.1-7.1 12.2z"/>
				</g>
				<g id="&lt;Group&gt;">
					<path id="&lt;Path&gt;" class="s0" d="m826.9 825.4v15.5c0 1.1 0.6 2.1 1.5 2.7l13.4 7.7c1 0.6 2.2 0.6 3.2 0l13.4-7.7c0.9-0.6 1.5-1.6 1.5-2.7v-15.5c0-1.1-0.6-2.1-1.5-2.7l-13.4-7.7c-1-0.6-2.2-0.6-3.2 0l-13.4 7.7c-0.9 0.6-1.5 1.6-1.5 2.7z"/>
				</g>
				<g id="&lt;Group&gt;">
					<path id="&lt;Path&gt;" class="s0" d="m1372.1 189v15.5c0 1.1 0.6 2.2 1.6 2.7l13.4 7.7c0.9 0.6 2.1 0.6 3.1 0l13.4-7.7c1-0.5 1.6-1.6 1.6-2.7v-15.5c0-1.1-0.6-2.1-1.6-2.7l-13.4-7.7c-1-0.6-2.2-0.6-3.1 0l-13.4 7.7c-1 0.6-1.6 1.6-1.6 2.7z"/>
				</g>
				<g id="&lt;Group&gt;">
					<path id="&lt;Path&gt;" class="s0" d="m918.3 732.5v15.5c0 1.1 0.6 2.1 1.6 2.7l13.4 7.7c0.9 0.6 2.1 0.6 3.1 0l13.4-7.7c1-0.6 1.6-1.6 1.6-2.7v-15.5c0-1.1-0.6-2.2-1.6-2.7l-13.4-7.7c-1-0.6-2.2-0.6-3.1 0l-13.4 7.7c-1 0.5-1.6 1.6-1.6 2.7z"/>
				</g>
				<g id="&lt;Group&gt;">
					<path id="&lt;Path&gt;" class="s0" d="m267.4 236.5v15.4c0 1.2 0.6 2.2 1.6 2.7l13.4 7.8c1 0.5 2.2 0.5 3.1 0l13.4-7.8c1-0.5 1.6-1.5 1.6-2.7v-15.4c0-1.2-0.6-2.2-1.6-2.7l-13.4-7.8c-0.9-0.5-2.1-0.5-3.1 0l-13.4 7.8c-1 0.5-1.6 1.5-1.6 2.7z"/>
				</g>
				<g id="&lt;Group&gt;">
					<path id="&lt;Path&gt;" class="s0" d="m1416.6 531v15.4c0 1.1 0.6 2.2 1.6 2.7l13.4 7.8c0.9 0.5 2.1 0.5 3.1 0l13.4-7.8c1-0.5 1.6-1.6 1.6-2.7v-15.4c0-1.2-0.6-2.2-1.6-2.7l-13.4-7.8c-1-0.5-2.2-0.5-3.1 0l-13.4 7.8c-1 0.5-1.6 1.5-1.6 2.7z"/>
				</g>
				<g id="&lt;Group&gt;">
					<path id="&lt;Path&gt;" class="s0" d="m787.4 862.5v15.5c0 1.1 0.6 2.1 1.6 2.7l13.4 7.7c1 0.6 2.2 0.6 3.1 0l13.4-7.7c1-0.6 1.6-1.6 1.6-2.7v-15.5c0-1.1-0.6-2.1-1.6-2.7l-13.4-7.7c-0.9-0.6-2.1-0.6-3.1 0l-13.4 7.7c-1 0.6-1.6 1.6-1.6 2.7z"/>
				</g>
				<g id="&lt;Group&gt;">
					<path id="&lt;Path&gt;" class="s0" d="m213.9 642v15.4c0 1.2 0.6 2.2 1.5 2.7l13.4 7.8c1 0.5 2.2 0.5 3.2 0l13.4-7.8c0.9-0.5 1.5-1.5 1.5-2.7v-15.4c0-1.1-0.6-2.2-1.5-2.7l-13.4-7.8c-1-0.5-2.2-0.5-3.2 0l-13.4 7.8c-0.9 0.5-1.5 1.6-1.5 2.7z"/>
				</g>
				<g id="&lt;Group&gt;">
					<path id="&lt;Path&gt;" class="s0" d="m573.7 89v15.5c0 1.1 0.6 2.1 1.6 2.7l13.4 7.7c0.9 0.6 2.1 0.6 3.1 0l13.4-7.7c1-0.6 1.6-1.6 1.6-2.7v-15.5c0-1.1-0.6-2.1-1.6-2.7l-13.4-7.7c-1-0.6-2.2-0.6-3.1 0l-13.4 7.7c-1 0.6-1.6 1.6-1.6 2.7z"/>
				</g>
				<g id="&lt;Group&gt;">
					<path id="&lt;Path&gt;" class="s0" d="m94.8 152.1v15.5c0 1.1 0.6 2.2 1.6 2.7l13.4 7.7c1 0.6 2.2 0.6 3.1 0l13.4-7.7c1-0.5 1.6-1.6 1.6-2.7v-15.5c0-1.1-0.6-2.1-1.6-2.7l-13.4-7.7c-0.9-0.6-2.1-0.6-3.1 0l-13.4 7.7c-1 0.6-1.6 1.6-1.6 2.7z"/>
				</g>
			</g>
		</g>
		<g id="&lt;Clip Group&gt;" clip-path="url(#cp2)">
			<g id="&lt;Group&gt;">
				<g id="&lt;Group&gt;">
					<g id="&lt;Group&gt;">
						<g id="&lt;Group&gt;">
							<path id="&lt;Path&gt;" class="s1" d="m1142.2 775.5v362.2c0 26.2 13.9 50.4 36.6 63.5l313.7 181.1c22.7 13.1 50.6 13.1 73.3 0l313.6-181.1c22.7-13.1 36.7-37.3 36.7-63.5v-362.2c0-26.2-14-50.4-36.7-63.5l-313.6-181.1c-22.7-13.1-50.6-13.1-73.3 0l-313.7 181.1c-22.7 13.1-36.6 37.3-36.6 63.5z"/>
						</g>
					</g>
				</g>
				<g id="&lt;Group&gt;">
					<g id="&lt;Group&gt;">
						<g id="&lt;Group&gt;">
							<path id="&lt;Path&gt;" class="s1" d="m834.8 1008.4v103.7c0 7.5 4 14.4 10.5 18.1l89.8 51.9c6.5 3.7 14.5 3.7 21 0l89.7-51.9c6.5-3.7 10.5-10.6 10.5-18.1v-103.7c0-7.5-4-14.4-10.5-18.1l-89.7-51.9c-6.5-3.7-14.5-3.7-21 0l-89.8 51.9c-6.5 3.7-10.5 10.6-10.5 18.1z"/>
							<path id="&lt;Compound Path&gt;" fill-rule="evenodd" class="s2" d="m1056.3 1008.4v103.7c0 7.5-4 14.4-10.5 18.1l-89.7 51.9c-6.5 3.7-14.5 3.7-21 0l-89.8-51.9c-6.5-3.7-10.5-10.6-10.5-18.1v-103.7c0-7.5 4-14.4 10.5-18.1l89.8-51.9c6.5-3.7 14.5-3.7 21 0l89.7 51.9c6.5 3.7 10.5 10.6 10.5 18.1zm-1 0c0-7.1-3.8-13.7-10-17.2l-89.8-51.9c-3-1.7-6.4-2.6-9.9-2.6-3.5 0-7 0.9-10 2.6l-89.8 51.9c-6.1 3.5-9.9 10.1-9.9 17.2v103.7c0 7.1 3.8 13.7 9.9 17.2l89.8 51.9c3 1.7 6.5 2.6 10 2.6 3.5 0 6.9-0.9 9.9-2.6l89.8-51.9c6.2-3.5 10-10.1 10-17.2z"/>
						</g>
					</g>
				</g>
				<g id="&lt;Group&gt;">
					<g id="&lt;Group&gt;">
						<g id="&lt;Group&gt;">
							<path id="&lt;Path&gt;" class="s3" d="m1142.2 525.2v115.2c0 8.3 4.4 16 11.6 20.2l99.7 57.6c7.3 4.1 16.1 4.1 23.3 0l99.8-57.6c7.2-4.2 11.6-11.9 11.6-20.2v-115.2c0-8.3-4.4-16-11.6-20.1l-99.8-57.6c-7.2-4.2-16-4.2-23.3 0l-99.7 57.6c-7.2 4.1-11.6 11.8-11.6 20.1z"/>
							<path id="&lt;Compound Path&gt;" fill-rule="evenodd" class="s2" d="m1388.2 525.2v115.2c0 8.3-4.4 16-11.6 20.2l-99.8 57.6c-7.2 4.1-16 4.1-23.3 0l-99.7-57.6c-7.2-4.2-11.6-11.9-11.6-20.2v-115.2c0-8.3 4.4-16 11.6-20.1l99.7-57.6c7.3-4.2 16.1-4.2 23.3 0l99.8 57.6c7.2 4.1 11.6 11.8 11.6 20.1zm-2 0c0-7.6-4.1-14.6-10.6-18.4l-99.8-57.6c-3.2-1.9-6.9-2.9-10.6-2.9-3.7 0-7.4 1-10.7 2.9l-99.7 57.6c-6.6 3.8-10.6 10.8-10.6 18.4v115.2c0 7.6 4 14.6 10.6 18.4l99.7 57.6c3.3 1.9 7 2.9 10.7 2.9 3.7 0 7.4-1 10.6-2.9l99.8-57.6c6.5-3.8 10.6-10.8 10.6-18.4z"/>
						</g>
					</g>
				</g>
				<g id="&lt;Group&gt;">
					<g id="&lt;Group&gt;">
						<g id="&lt;Group&gt;">
							<path id="&lt;Path&gt;" class="s3" d="m938.3 891.1v115.2c0 8.3 4.4 16 11.6 20.1l99.8 57.6c7.2 4.2 16.1 4.2 23.3 0l99.7-57.6c7.2-4.1 11.7-11.8 11.7-20.1v-115.2c0-8.3-4.5-16-11.7-20.2l-99.7-57.6c-7.2-4.1-16.1-4.1-23.3 0l-99.8 57.6c-7.2 4.2-11.6 11.9-11.6 20.2z"/>
							<path id="&lt;Compound Path&gt;" fill-rule="evenodd" class="s2" d="m1184.4 891.1v115.2c0 8.3-4.5 16-11.7 20.1l-99.7 57.6c-7.2 4.2-16.1 4.2-23.3 0l-99.8-57.6c-7.2-4.1-11.6-11.8-11.6-20.1v-115.2c0-8.3 4.4-16 11.6-20.2l99.8-57.6c7.2-4.1 16.1-4.1 23.3 0l99.7 57.6c7.2 4.2 11.7 11.9 11.7 20.2zm-2 0c0-7.6-4.1-14.7-10.7-18.5l-99.7-57.5c-3.3-1.9-6.9-2.9-10.7-2.9-3.7 0-7.4 1-10.6 2.9l-99.8 57.5c-6.5 3.8-10.6 10.9-10.6 18.5v115.2c0 7.5 4.1 14.6 10.6 18.4l99.8 57.6c3.2 1.9 6.9 2.8 10.6 2.8 3.8 0 7.4-0.9 10.7-2.8l99.7-57.6c6.6-3.8 10.7-10.9 10.7-18.4z"/>
						</g>
					</g>
				</g>
				<g id="&lt;Group&gt;">
					<g id="&lt;Group&gt;">
						<g id="&lt;Group&gt;">
							<path id="&lt;Path&gt;" class="s3" d="m1310.1 928.4v115.1c0 8.3 4.4 16 11.6 20.2l99.8 57.6c7.2 4.1 16.1 4.1 23.3 0l99.7-57.6c7.2-4.2 11.7-11.9 11.7-20.2v-115.1c0-8.4-4.5-16.1-11.7-20.2l-99.7-57.6c-7.2-4.2-16.1-4.2-23.3 0l-99.8 57.6c-7.2 4.1-11.6 11.8-11.6 20.2z"/>
							<path id="&lt;Compound Path&gt;" fill-rule="evenodd" class="s2" d="m1556.2 928.4v115.1c0 8.3-4.5 16-11.7 20.2l-99.7 57.6c-7.2 4.1-16.1 4.1-23.3 0l-99.8-57.6c-7.2-4.2-11.6-11.9-11.6-20.2v-115.1c0-8.4 4.4-16.1 11.6-20.2l99.8-57.6c7.2-4.2 16.1-4.2 23.3 0l99.7 57.6c7.2 4.1 11.7 11.8 11.7 20.2zm-2 0c0-7.6-4.1-14.7-10.7-18.5l-99.7-57.6c-3.3-1.8-6.9-2.8-10.7-2.8-3.7 0-7.4 1-10.6 2.8l-99.8 57.6c-6.5 3.8-10.6 10.9-10.6 18.5v115.1c0 7.6 4.1 14.7 10.6 18.5l99.8 57.5c3.2 1.9 6.9 2.9 10.6 2.9 3.8 0 7.4-1 10.7-2.9l99.7-57.5c6.6-3.8 10.7-10.9 10.7-18.5z"/>
						</g>
					</g>
				</g>
				<g id="&lt;Group&gt;">
					<g id="&lt;Group&gt;">
						<g id="&lt;Group&gt;">
							<path id="&lt;Path&gt;" class="s3" d="m1456.3 178.6v115.2c0 8.3 4.5 16 11.7 20.2l99.7 57.5c7.2 4.2 16.1 4.2 23.3 0l99.7-57.5c7.3-4.2 11.7-11.9 11.7-20.2v-115.2c0-8.3-4.4-16-11.7-20.2l-99.7-57.5c-7.2-4.2-16.1-4.2-23.3 0l-99.7 57.5c-7.2 4.2-11.7 11.9-11.7 20.2z"/>
							<path id="&lt;Compound Path&gt;" fill-rule="evenodd" class="s2" d="m1702.4 178.6v115.2c0 8.3-4.4 16-11.7 20.2l-99.7 57.5c-7.2 4.2-16.1 4.2-23.3 0l-99.7-57.5c-7.2-4.2-11.7-11.9-11.7-20.2v-115.2c0-8.3 4.5-16 11.7-20.2l99.7-57.5c7.2-4.2 16.1-4.2 23.3 0l99.7 57.5c7.3 4.2 11.7 11.9 11.7 20.2zm-2 0c0-7.6-4.1-14.6-10.7-18.4l-99.7-57.6c-3.2-1.9-6.9-2.9-10.6-2.9-3.8 0-7.5 1-10.7 2.9l-99.7 57.6c-6.6 3.8-10.7 10.8-10.7 18.4v115.2c0 7.6 4.1 14.6 10.7 18.4l99.7 57.6c3.2 1.9 6.9 2.9 10.7 2.9 3.7 0 7.4-1 10.6-2.9l99.7-57.6c6.6-3.8 10.7-10.8 10.7-18.4z"/>
						</g>
					</g>
				</g>
				<g id="&lt;Group&gt;">
					<g id="&lt;Group&gt;">
						<g id="&lt;Group&gt;">
							<path id="&lt;Path&gt;" class="s1" d="m958.5 614.4v59.6c0 4.3 2.3 8.3 6.1 10.4l51.6 29.8c3.7 2.2 8.3 2.2 12.1 0l51.6-29.8c3.7-2.1 6-6.1 6-10.4v-59.6c0-4.3-2.3-8.3-6-10.5l-51.6-29.8c-3.8-2.2-8.4-2.2-12.1 0l-51.6 29.8c-3.8 2.2-6.1 6.2-6.1 10.5z"/>
							<path id="&lt;Compound Path&gt;" fill-rule="evenodd" class="s2" d="m1085.9 614.4v59.6c0 4.3-2.3 8.3-6 10.4l-51.6 29.8c-3.8 2.2-8.4 2.2-12.1 0l-51.6-29.8c-3.8-2.1-6.1-6.1-6.1-10.4v-59.6c0-4.3 2.3-8.3 6.1-10.5l51.6-29.8c3.7-2.2 8.3-2.2 12.1 0l51.6 29.8c3.7 2.2 6 6.2 6 10.5zm-2 0c0-3.6-1.9-7-5-8.8l-51.6-29.8c-1.6-0.8-3.3-1.3-5.1-1.3-1.7 0-3.5 0.5-5 1.3l-51.6 29.8c-3.1 1.8-5.1 5.2-5.1 8.8v59.6c0 3.6 2 6.9 5.1 8.7l51.6 29.8c1.5 0.9 3.3 1.4 5 1.4 1.8 0 3.5-0.5 5.1-1.4l51.6-29.8c3.1-1.8 5-5.1 5-8.7z"/>
						</g>
					</g>
				</g>
				<g id="&lt;Group&gt;">
					<g id="&lt;Group&gt;">
						<g id="&lt;Group&gt;">
							<path id="&lt;Path&gt;" class="s3" d="m1417.9 403.1v59.6c0 4.3 2.3 8.3 6.1 10.4l51.6 29.8c3.7 2.2 8.3 2.2 12.1 0l51.6-29.8c3.7-2.1 6-6.1 6-10.4v-59.6c0-4.4-2.3-8.3-6-10.5l-51.6-29.8c-3.8-2.2-8.4-2.2-12.1 0l-51.6 29.8c-3.8 2.2-6.1 6.1-6.1 10.5z"/>
							<path id="&lt;Compound Path&gt;" fill-rule="evenodd" class="s2" d="m1545.3 403.1v59.6c0 4.3-2.3 8.3-6 10.4l-51.6 29.8c-3.8 2.2-8.4 2.2-12.1 0l-51.6-29.8c-3.8-2.1-6.1-6.1-6.1-10.4v-59.6c0-4.4 2.3-8.3 6.1-10.5l51.6-29.8c3.7-2.2 8.3-2.2 12.1 0l51.6 29.8c3.7 2.2 6 6.1 6 10.5zm-2 0c0-3.6-1.9-7-5-8.8l-51.6-29.8c-1.6-0.9-3.3-1.3-5.1-1.3-1.7 0-3.5 0.4-5 1.3l-51.6 29.8c-3.1 1.8-5.1 5.2-5.1 8.8v59.6c0 3.6 2 6.9 5.1 8.7l51.6 29.8c1.5 0.9 3.3 1.3 5 1.3 1.8 0 3.5-0.4 5.1-1.3l51.6-29.8c3.1-1.8 5-5.1 5-8.7z"/>
						</g>
					</g>
				</g>
				<g id="&lt;Group&gt;">
					<g id="&lt;Group&gt;">
						<g id="&lt;Group&gt;">
							<path id="&lt;Path&gt;" class="s3" d="m636.7 975.7v59.6c0 4.3 2.3 8.3 6 10.5l51.6 29.8c3.8 2.1 8.4 2.1 12.1 0l51.6-29.8c3.8-2.2 6.1-6.2 6.1-10.5v-59.6c0-4.3-2.3-8.3-6.1-10.5l-51.6-29.8c-3.7-2.1-8.3-2.1-12.1 0l-51.6 29.8c-3.7 2.2-6 6.2-6 10.5z"/>
							<path id="&lt;Compound Path&gt;" fill-rule="evenodd" class="s2" d="m764.1 975.7v59.6c0 4.3-2.3 8.3-6.1 10.5l-51.6 29.8c-3.7 2.1-8.3 2.1-12.1 0l-51.6-29.8c-3.7-2.2-6-6.2-6-10.5v-59.6c0-4.3 2.3-8.3 6-10.5l51.6-29.8c3.8-2.1 8.4-2.1 12.1 0l51.6 29.8c3.8 2.2 6.1 6.2 6.1 10.5zm-2 0c0-3.6-1.9-6.9-5.1-8.7l-51.6-29.8c-1.5-0.9-3.3-1.4-5-1.4-1.8 0-3.5 0.5-5.1 1.4l-51.6 29.8c-3.1 1.8-5 5.1-5 8.7v59.6c0 3.6 1.9 6.9 5 8.7l51.6 29.8c1.6 0.9 3.3 1.4 5.1 1.4 1.7 0 3.5-0.5 5-1.4l51.6-29.8c3.2-1.8 5.1-5.1 5.1-8.7z"/>
						</g>
					</g>
				</g>
				<g id="&lt;Group&gt;">
					<g id="&lt;Group&gt;">
						<g id="&lt;Group&gt;">
							<path id="&lt;Path&gt;" class="s3" d="m762.7 883.4v42.1c0 3.1 1.6 5.9 4.2 7.4l36.5 21.1c2.7 1.5 5.9 1.5 8.5 0l36.5-21.1c2.7-1.5 4.3-4.3 4.3-7.4v-42.1c0-3-1.6-5.9-4.3-7.4l-36.5-21c-2.6-1.6-5.8-1.6-8.5 0l-36.5 21c-2.6 1.5-4.2 4.4-4.2 7.4z"/>
							<path id="&lt;Compound Path&gt;" fill-rule="evenodd" class="s2" d="m852.7 883.4v42.1c0 3.1-1.6 5.9-4.3 7.4l-36.5 21.1c-2.6 1.5-5.8 1.5-8.5 0l-36.5-21.1c-2.6-1.5-4.2-4.3-4.2-7.4v-42.1c0-3 1.6-5.9 4.2-7.4l36.5-21c2.7-1.6 5.9-1.6 8.5 0l36.5 21c2.7 1.5 4.3 4.4 4.3 7.4zm-1.4 0c0-2.5-1.4-4.9-3.6-6.2l-36.5-21c-1-0.6-2.3-1-3.5-1-1.3 0-2.5 0.4-3.6 1l-36.5 21c-2.2 1.3-3.5 3.7-3.5 6.2v42.1c0 2.6 1.3 4.9 3.5 6.2l36.5 21.1c1.1 0.6 2.3 0.9 3.6 0.9 1.2 0 2.5-0.3 3.5-0.9l36.5-21.1c2.2-1.3 3.6-3.6 3.6-6.2z"/>
						</g>
					</g>
				</g>
				<g id="&lt;Group&gt;">
					<g id="&lt;Group&gt;">
						<g id="&lt;Group&gt;">
							<path id="&lt;Path&gt;" class="s3" d="m936.4 601.1v25.4c0 1.8 1 3.5 2.5 4.4l22.1 12.7c1.5 1 3.5 1 5.1 0l22-12.7c1.6-0.9 2.6-2.6 2.6-4.4v-25.4c0-1.9-1-3.5-2.6-4.5l-22-12.7c-1.6-0.9-3.6-0.9-5.1 0l-22.1 12.7c-1.5 1-2.5 2.6-2.5 4.5z"/>
							<path id="&lt;Compound Path&gt;" fill-rule="evenodd" class="s2" d="m990.7 601.1v25.4c0 1.8-1 3.5-2.6 4.4l-22 12.7c-1.6 1-3.6 1-5.2 0l-22-12.7c-1.5-0.9-2.5-2.6-2.5-4.4v-25.4c0-1.9 1-3.5 2.5-4.5l22.1-12.7c1.5-0.9 3.5-0.9 5.1 0l22 12.7c1.6 1 2.6 2.6 2.6 4.5zm-0.9 0c0-1.5-0.8-3-2.1-3.7l-22-12.7c-0.7-0.4-1.4-0.6-2.2-0.6-0.7 0-1.5 0.2-2.1 0.6l-22 12.7c-1.4 0.7-2.2 2.2-2.2 3.7v25.4c0 1.5 0.8 2.9 2.2 3.7l22 12.7c0.6 0.4 1.4 0.6 2.1 0.6 0.8 0 1.5-0.2 2.2-0.6l22-12.7c1.3-0.8 2.1-2.2 2.1-3.7z"/>
						</g>
					</g>
				</g>
				<g id="&lt;Group&gt;">
					<g id="&lt;Group&gt;">
						<g id="&lt;Group&gt;">
							<path id="&lt;Path&gt;" class="s3" d="m434.2 974.6v25.4c0 1.8 1 3.5 2.6 4.5l22 12.7c1.6 0.9 3.5 0.9 5.1 0l22-12.7c1.6-1 2.6-2.7 2.6-4.5v-25.4c0-1.8-1-3.5-2.6-4.5l-22-12.7c-1.6-0.9-3.5-0.9-5.1 0l-22 12.7c-1.6 1-2.6 2.7-2.6 4.5z"/>
							<path id="&lt;Compound Path&gt;" fill-rule="evenodd" class="s2" d="m488.5 974.6v25.4c0 1.8-1 3.5-2.6 4.5l-22 12.7c-1.6 0.9-3.5 0.9-5.1 0l-22-12.7c-1.6-1-2.6-2.7-2.6-4.5v-25.4c0-1.8 1-3.5 2.6-4.5l22-12.7c1.6-0.9 3.5-0.9 5.1 0l22 12.7c1.6 1 2.6 2.7 2.6 4.5zm-0.9 0c0-1.5-0.8-3-2.1-3.7l-22-12.7c-0.7-0.4-1.4-0.6-2.2-0.6-0.7 0-1.5 0.2-2.1 0.6l-22 12.7c-1.3 0.7-2.2 2.2-2.2 3.7v25.4c0 1.5 0.9 2.9 2.2 3.7l22 12.7c0.6 0.4 1.4 0.6 2.1 0.6 0.8 0 1.5-0.2 2.2-0.6l22-12.7c1.3-0.8 2.1-2.2 2.1-3.7z"/>
						</g>
					</g>
				</g>
				<g id="&lt;Group&gt;">
					<g id="&lt;Group&gt;">
						<g id="&lt;Group&gt;">
							<path id="&lt;Path&gt;" class="s3" d="m1202.5 906.3v25.4c0 1.8 1 3.5 2.6 4.4l22 12.7c1.6 1 3.5 1 5.1 0l22-12.7c1.6-0.9 2.6-2.6 2.6-4.4v-25.4c0-1.9-1-3.6-2.6-4.5l-22-12.7c-1.6-0.9-3.5-0.9-5.1 0l-22 12.7c-1.6 0.9-2.6 2.6-2.6 4.5z"/>
							<path id="&lt;Compound Path&gt;" fill-rule="evenodd" class="s2" d="m1256.8 906.3v25.4c0 1.8-1 3.5-2.6 4.4l-22 12.7c-1.6 1-3.5 1-5.1 0l-22-12.7c-1.6-0.9-2.6-2.6-2.6-4.4v-25.4c0-1.9 1-3.6 2.6-4.5l22-12.7c1.6-0.9 3.5-0.9 5.1 0l22 12.7c1.6 0.9 2.6 2.6 2.6 4.5zm-0.9 0c0-1.6-0.8-3-2.1-3.7l-22-12.7c-0.7-0.4-1.4-0.6-2.2-0.6-0.7 0-1.5 0.2-2.1 0.6l-22 12.7c-1.3 0.7-2.2 2.1-2.2 3.7v25.4c0 1.5 0.9 2.9 2.2 3.7l22 12.7c0.6 0.4 1.4 0.6 2.1 0.6 0.8 0 1.5-0.2 2.2-0.6l22-12.7c1.3-0.8 2.1-2.2 2.1-3.7z"/>
						</g>
					</g>
				</g>
			</g>
		</g>
		<g id="&lt;Clip Group&gt;" clip-path="url(#cp3)">
			<g id="&lt;Group&gt;">
				<g id="&lt;Group&gt;">
					<g id="&lt;Group&gt;">
						<g id="&lt;Group&gt;">
							<path id="&lt;Compound Path&gt;" fill-rule="evenodd" class="s1" d="m88.3 257.6c-13.7 0-27.4-3.5-39.7-10.5l-253.4-146.4c-24.5-14.1-39.6-40.4-39.6-68.6v-292.7c0-28.2 15.1-54.5 39.6-68.6l253.4-146.3c24.5-14.1 54.8-14.1 79.3 0l253.5 146.3c24.4 14.1 39.6 40.4 39.6 68.6v292.7c0 28.2-15.2 54.5-39.6 68.6l-253.5 146.4c-12.2 7-25.9 10.5-39.6 10.5zm0-703.7c-6.8 0-13.6 1.7-19.7 5.2l-253.4 146.3c-12.1 7-19.6 20-19.6 34v292.7c0 14 7.5 27 19.6 34l253.4 146.3c12.1 7 27.2 7 39.3 0l253.5-146.3c12.1-7 19.6-20 19.6-34v-292.7c0-14-7.5-27-19.6-34l-253.5-146.3c-6.1-3.5-12.9-5.2-19.6-5.2z"/>
							<g id="&lt;Group&gt;" style="opacity: .2;mix-blend-mode: overlay">
								<path id="&lt;Compound Path&gt;" fill-rule="evenodd" class="s4" d="m421-260.6v292.7c0 28.2-15.2 54.5-39.6 68.6l-253.5 146.4c-12.2 7-25.9 10.5-39.6 10.5-13.7 0-27.4-3.5-39.7-10.5l-253.4-146.4c-24.5-14.1-39.6-40.4-39.6-68.6v-292.7c0-28.2 15.1-54.5 39.6-68.6l253.4-146.3c24.5-14.1 54.8-14.1 79.3 0l253.5 146.3c24.4 14.1 39.6 40.4 39.6 68.6zm-2 0c0-27.5-14.8-53.1-38.6-66.9l-253.5-146.3c-11.7-6.8-25.1-10.3-38.6-10.3-13.6 0-27 3.5-38.7 10.3l-253.4 146.3c-23.8 13.8-38.6 39.4-38.6 66.9v292.7c0 27.5 14.8 53.1 38.6 66.9l253.4 146.3c11.7 6.8 25.1 10.3 38.7 10.3 13.5 0 26.9-3.5 38.6-10.3l253.5-146.3c23.8-13.8 38.6-39.4 38.6-66.9z"/>
								<path id="&lt;Compound Path&gt;" fill-rule="evenodd" class="s4" d="m383-260.6v292.7c0 14.7-7.9 28.4-20.6 35.7l-253.5 146.4c-6.3 3.6-13.4 5.5-20.6 5.5-7.3 0-14.4-1.9-20.7-5.5l-253.4-146.4c-12.7-7.3-20.6-21-20.6-35.7v-292.7c0-14.7 7.9-28.3 20.6-35.7l253.4-146.3c6.3-3.6 13.4-5.5 20.7-5.5 7.2 0 14.3 1.9 20.6 5.5l253.5 146.3c12.7 7.4 20.6 21 20.6 35.7zm-2 0c0-14-7.5-27-19.6-34l-253.5-146.3c-6.1-3.5-12.9-5.2-19.6-5.2-6.8 0-13.6 1.7-19.7 5.2l-253.4 146.3c-12.1 7-19.6 20-19.6 34v292.7c0 14 7.5 27 19.6 34l253.4 146.3c12.1 7 27.2 7 39.3 0l253.5-146.3c12.1-7 19.6-20 19.6-34z"/>
							</g>
						</g>
					</g>
				</g>
				<g id="&lt;Group&gt;">
					<g id="&lt;Group&gt;">
						<g id="&lt;Group&gt;">
							<path id="&lt;Path&gt;" class="s1" d="m-281.5 410.1v199.3c0 14.4 7.7 27.7 20.2 34.9l172.5 99.7c12.5 7.2 27.9 7.2 40.4 0l172.6-99.7c12.4-7.2 20.1-20.5 20.1-34.9v-199.3c0-14.4-7.7-27.7-20.1-34.9l-172.6-99.7c-12.5-7.2-27.9-7.2-40.4 0l-172.5 99.7c-12.5 7.2-20.2 20.5-20.2 34.9z"/>
							<path id="&lt;Compound Path&gt;" fill-rule="evenodd" class="s2" d="m144.3 410.1v199.3c0 14.4-7.7 27.7-20.1 34.9l-172.6 99.7c-12.5 7.2-27.9 7.2-40.4 0l-172.5-99.7c-12.5-7.2-20.2-20.5-20.2-34.9v-199.3c0-14.4 7.7-27.7 20.2-34.9l172.5-99.7c12.5-7.2 27.9-7.2 40.4 0l172.6 99.7c12.4 7.2 20.1 20.5 20.1 34.9zm-2 0c0-13.6-7.3-26.4-19.1-33.2l-172.6-99.6c-5.8-3.4-12.5-5.2-19.2-5.2-6.7 0-13.3 1.8-19.2 5.2l-172.5 99.6c-11.9 6.8-19.2 19.6-19.2 33.2v199.3c0 13.6 7.3 26.4 19.2 33.2l172.5 99.6c5.9 3.4 12.5 5.2 19.2 5.2 6.7 0 13.4-1.8 19.2-5.2l172.6-99.6c11.8-6.8 19.1-19.6 19.1-33.2z"/>
						</g>
					</g>
				</g>
				<g id="&lt;Group&gt;">
					<g id="&lt;Group&gt;">
						<g id="&lt;Group&gt;">
							<path id="&lt;Path&gt;" class="s3" d="m-182 294.7v115.2c0 8.3 4.5 16 11.7 20.2l99.7 57.6c7.2 4.1 16.1 4.1 23.3 0l99.8-57.6c7.2-4.2 11.6-11.9 11.6-20.2v-115.2c0-8.3-4.4-16-11.6-20.1l-99.8-57.6c-7.2-4.2-16.1-4.2-23.3 0l-99.7 57.6c-7.2 4.1-11.7 11.8-11.7 20.1z"/>
							<path id="&lt;Compound Path&gt;" fill-rule="evenodd" class="s2" d="m64.1 294.7v115.2c0 8.3-4.4 16-11.6 20.2l-99.8 57.6c-7.2 4.1-16.1 4.1-23.3 0l-99.7-57.6c-7.2-4.2-11.7-11.9-11.7-20.2v-115.2c0-8.3 4.5-16 11.7-20.1l99.7-57.6c7.2-4.2 16.1-4.2 23.3 0l99.8 57.6c7.2 4.1 11.6 11.8 11.6 20.1zm-2 0c0-7.5-4.1-14.6-10.6-18.4l-99.8-57.6c-3.2-1.9-6.9-2.8-10.6-2.8-3.8 0-7.4 0.9-10.7 2.8l-99.7 57.6c-6.6 3.8-10.7 10.9-10.7 18.4v115.2c0 7.6 4.1 14.7 10.7 18.4l99.7 57.6c3.3 1.9 6.9 2.9 10.7 2.9 3.7 0 7.4-1 10.6-2.9l99.8-57.6c6.5-3.7 10.6-10.8 10.6-18.4z"/>
						</g>
					</g>
				</g>
				<g id="&lt;Group&gt;">
					<g id="&lt;Group&gt;">
						<g id="&lt;Group&gt;">
							<path id="&lt;Path&gt;" class="s1" d="m263.7-18.3v115.2c0 8.3 4.5 16 11.7 20.1l99.7 57.6c7.2 4.2 16.1 4.2 23.3 0l99.7-57.6c7.2-4.1 11.7-11.8 11.7-20.1v-115.2c0-8.3-4.5-16-11.7-20.2l-99.7-57.6c-7.2-4.1-16.1-4.1-23.3 0l-99.7 57.6c-7.2 4.2-11.7 11.9-11.7 20.2z"/>
							<path id="&lt;Compound Path&gt;" fill-rule="evenodd" class="s2" d="m509.8-18.3v115.2c0 8.3-4.5 16-11.7 20.1l-99.7 57.6c-7.2 4.2-16.1 4.2-23.3 0l-99.7-57.6c-7.2-4.1-11.7-11.8-11.7-20.1v-115.2c0-8.3 4.5-16 11.7-20.2l99.7-57.6c7.2-4.1 16.1-4.1 23.3 0l99.7 57.6c7.2 4.2 11.7 11.9 11.7 20.2zm-2 0c0-7.6-4.1-14.7-10.7-18.5l-99.7-57.5c-3.2-1.9-6.9-2.9-10.6-2.9-3.8 0-7.5 1-10.7 2.9l-99.7 57.5c-6.6 3.8-10.7 10.9-10.7 18.5v115.2c0 7.5 4.1 14.6 10.7 18.4l99.7 57.6c3.2 1.9 6.9 2.8 10.7 2.8 3.7 0 7.4-0.9 10.6-2.8l99.7-57.6c6.6-3.8 10.7-10.9 10.7-18.4z"/>
						</g>
					</g>
				</g>
				<g id="&lt;Group&gt;">
					<g id="&lt;Group&gt;">
						<g id="&lt;Group&gt;">
							<path id="&lt;Path&gt;" class="s3" d="m206.2-33.4v59.6c0 4.3 2.3 8.3 6.1 10.4l51.6 29.8c3.7 2.2 8.3 2.2 12.1 0l51.6-29.8c3.7-2.1 6-6.1 6-10.4v-59.6c0-4.3-2.3-8.3-6-10.5l-51.6-29.8c-3.8-2.1-8.4-2.1-12.1 0l-51.6 29.8c-3.8 2.2-6.1 6.2-6.1 10.5z"/>
							<path id="&lt;Compound Path&gt;" fill-rule="evenodd" class="s2" d="m333.6-33.4v59.6c0 4.3-2.3 8.3-6 10.4l-51.6 29.8c-3.8 2.2-8.4 2.2-12.1 0l-51.6-29.8c-3.8-2.1-6.1-6.1-6.1-10.4v-59.6c0-4.3 2.3-8.3 6.1-10.5l51.6-29.8c3.7-2.1 8.3-2.1 12.1 0l51.6 29.8c3.7 2.2 6 6.2 6 10.5zm-2 0c0-3.6-1.9-7-5-8.8l-51.6-29.8c-1.6-0.8-3.3-1.3-5.1-1.3-1.7 0-3.5 0.5-5 1.3l-51.6 29.8c-3.1 1.8-5.1 5.2-5.1 8.8v59.6c0 3.6 2 6.9 5.1 8.7l51.6 29.8c1.5 0.9 3.3 1.4 5 1.4 1.8 0 3.5-0.5 5.1-1.4l51.6-29.8c3.1-1.8 5-5.1 5-8.7z"/>
						</g>
					</g>
				</g>
				<g id="&lt;Group&gt;">
					<g id="&lt;Group&gt;">
						<g id="&lt;Group&gt;">
							<path id="&lt;Path&gt;" class="s1" d="m203.7 433.5v59.6c0 4.3 2.3 8.3 6.1 10.5l51.6 29.8c3.7 2.1 8.3 2.1 12.1 0l51.6-29.8c3.7-2.2 6-6.2 6-10.5v-59.6c0-4.3-2.3-8.3-6-10.5l-51.6-29.8c-3.8-2.1-8.4-2.1-12.1 0l-51.6 29.8c-3.8 2.2-6.1 6.2-6.1 10.5z"/>
							<path id="&lt;Compound Path&gt;" fill-rule="evenodd" class="s2" d="m331.1 433.5v59.6c0 4.3-2.3 8.3-6 10.5l-51.6 29.8c-3.8 2.1-8.4 2.1-12.1 0l-51.6-29.8c-3.8-2.2-6.1-6.2-6.1-10.5v-59.6c0-4.3 2.3-8.3 6.1-10.5l51.6-29.8c3.7-2.1 8.3-2.1 12.1 0l51.6 29.8c3.7 2.2 6 6.2 6 10.5zm-2 0c0-3.6-1.9-6.9-5-8.7l-51.6-29.8c-1.6-0.9-3.3-1.4-5.1-1.4-1.7 0-3.5 0.5-5 1.4l-51.6 29.8c-3.1 1.8-5.1 5.1-5.1 8.7v59.6c0 3.6 2 6.9 5.1 8.7l51.6 29.8c1.5 0.9 3.3 1.4 5 1.4 1.8 0 3.5-0.5 5.1-1.4l51.6-29.8c3.1-1.8 5-5.1 5-8.7z"/>
						</g>
					</g>
				</g>
				<g id="&lt;Group&gt;">
					<g id="&lt;Group&gt;">
						<g id="&lt;Group&gt;">
							<path id="&lt;Path&gt;" class="s1" d="m164.7 280.4v59.7c0 4.3 2.3 8.3 6 10.4l51.7 29.8c3.7 2.2 8.3 2.2 12 0l51.7-29.8c3.7-2.1 6-6.1 6-10.4v-59.7c0-4.3-2.3-8.3-6-10.4l-51.7-29.8c-3.7-2.2-8.3-2.2-12 0l-51.7 29.8c-3.7 2.1-6 6.1-6 10.4z"/>
							<path id="&lt;Compound Path&gt;" fill-rule="evenodd" class="s2" d="m292.1 280.4v59.7c0 4.3-2.3 8.3-6 10.4l-51.7 29.8c-3.7 2.2-8.3 2.2-12 0l-51.7-29.8c-3.7-2.1-6-6.1-6-10.4v-59.7c0-4.3 2.3-8.3 6-10.4l51.7-29.8c3.7-2.2 8.3-2.2 12 0l51.7 29.8c3.7 2.1 6 6.1 6 10.4zm-2 0c0-3.5-1.9-6.9-5-8.7l-51.7-29.8c-1.5-0.9-3.2-1.3-5-1.3-1.8 0-3.5 0.4-5 1.3l-51.7 29.8c-3.1 1.8-5 5.2-5 8.7v59.7c0 3.5 1.9 6.9 5 8.7l51.7 29.8c1.5 0.9 3.2 1.3 5 1.3 1.8 0 3.5-0.4 5-1.3l51.7-29.8c3.1-1.8 5-5.2 5-8.7z"/>
						</g>
					</g>
				</g>
				<g id="&lt;Group&gt;">
					<g id="&lt;Group&gt;">
						<g id="&lt;Group&gt;">
							<path id="&lt;Path&gt;" class="s1" d="m-44.3 14.6v59.7c0 4.3 2.3 8.3 6 10.4l51.6 29.8c3.8 2.2 8.4 2.2 12.1 0l51.6-29.8c3.8-2.1 6.1-6.1 6.1-10.4v-59.7c0-4.3-2.3-8.3-6.1-10.4l-51.6-29.8c-3.7-2.2-8.3-2.2-12.1 0l-51.6 29.8c-3.7 2.1-6 6.1-6 10.4z"/>
							<path id="&lt;Compound Path&gt;" fill-rule="evenodd" class="s2" d="m83.1 14.6v59.7c0 4.3-2.3 8.3-6.1 10.4l-51.6 29.8c-3.7 2.2-8.3 2.2-12.1 0l-51.6-29.8c-3.7-2.1-6-6.1-6-10.4v-59.7c0-4.3 2.3-8.3 6-10.4l51.6-29.8c3.8-2.2 8.4-2.2 12.1 0l51.6 29.8c3.8 2.1 6.1 6.1 6.1 10.4zm-2 0c0-3.5-1.9-6.9-5.1-8.7l-51.6-29.8c-1.5-0.9-3.3-1.3-5-1.3-1.8 0-3.5 0.4-5.1 1.3l-51.6 29.8c-3.1 1.8-5 5.2-5 8.7v59.7c0 3.5 1.9 6.9 5 8.7l51.6 29.8c1.6 0.9 3.3 1.3 5.1 1.3 1.7 0 3.5-0.4 5-1.3l51.6-29.8c3.2-1.8 5.1-5.2 5.1-8.7z"/>
						</g>
					</g>
				</g>
				<g id="&lt;Group&gt;">
					<g id="&lt;Group&gt;">
						<g id="&lt;Group&gt;">
							<path id="&lt;Path&gt;" class="s3" d="m632.9-64.1v59.6c0 4.3 2.3 8.3 6.1 10.5l51.6 29.8c3.7 2.1 8.3 2.1 12.1 0l51.6-29.8c3.7-2.2 6-6.2 6-10.5v-59.6c0-4.3-2.3-8.3-6-10.4l-51.6-29.8c-3.8-2.2-8.4-2.2-12.1 0l-51.6 29.8c-3.8 2.1-6.1 6.1-6.1 10.4z"/>
							<path id="&lt;Compound Path&gt;" fill-rule="evenodd" class="s2" d="m760.3-64.1v59.6c0 4.3-2.3 8.3-6 10.5l-51.6 29.8c-3.8 2.1-8.4 2.1-12.1 0l-51.6-29.8c-3.8-2.2-6.1-6.2-6.1-10.5v-59.6c0-4.3 2.3-8.3 6.1-10.4l51.6-29.8c3.7-2.2 8.3-2.2 12.1 0l51.6 29.8c3.7 2.1 6 6.1 6 10.4zm-2 0c0-3.6-1.9-6.9-5-8.7l-51.6-29.8c-1.6-0.9-3.3-1.4-5.1-1.4-1.7 0-3.5 0.5-5 1.4l-51.6 29.8c-3.1 1.8-5.1 5.1-5.1 8.7v59.6c0 3.6 2 7 5.1 8.8l51.6 29.8c1.5 0.8 3.3 1.3 5 1.3 1.8 0 3.5-0.5 5.1-1.3l51.6-29.8c3.1-1.8 5-5.2 5-8.8z"/>
						</g>
					</g>
				</g>
				<g id="&lt;Group&gt;">
					<g id="&lt;Group&gt;">
						<g id="&lt;Group&gt;">
							<path id="&lt;Path&gt;" class="s3" d="m-42.3 719.9v42.2c0 3 1.6 5.8 4.2 7.4l36.5 21c2.7 1.6 5.9 1.6 8.6 0l36.5-21c2.6-1.6 4.2-4.4 4.2-7.4v-42.2c0-3-1.6-5.8-4.2-7.3l-36.5-21.1c-2.7-1.5-5.9-1.5-8.6 0l-36.5 21.1c-2.6 1.5-4.2 4.3-4.2 7.3z"/>
							<path id="&lt;Compound Path&gt;" fill-rule="evenodd" class="s2" d="m47.7 719.9v42.2c0 3-1.6 5.8-4.2 7.4l-36.5 21c-2.7 1.6-5.9 1.6-8.6 0l-36.5-21c-2.6-1.6-4.2-4.4-4.2-7.4v-42.2c0-3 1.6-5.8 4.2-7.3l36.5-21.1c2.7-1.5 5.9-1.5 8.6 0l36.5 21.1c2.6 1.5 4.2 4.3 4.2 7.3zm-1.4 0c0-2.5-1.4-4.9-3.5-6.1l-36.5-21.1c-1.1-0.6-2.4-0.9-3.6-0.9-1.2 0-2.5 0.3-3.6 0.9l-36.4 21.1c-2.2 1.2-3.6 3.6-3.6 6.1v42.2c0 2.5 1.4 4.9 3.6 6.1l36.4 21.1c1.1 0.6 2.4 1 3.6 1 1.2 0 2.5-0.4 3.6-1l36.5-21.1c2.1-1.2 3.5-3.6 3.5-6.1z"/>
						</g>
					</g>
				</g>
				<g id="&lt;Group&gt;">
					<g id="&lt;Group&gt;">
						<g id="&lt;Group&gt;">
							<path id="&lt;Path&gt;" class="s3" d="m48.6 495.8v25.4c0 1.9 1 3.6 2.6 4.5l22 12.7c1.6 0.9 3.5 0.9 5.1 0l22-12.7c1.6-0.9 2.6-2.6 2.6-4.5v-25.4c0-1.8-1-3.5-2.6-4.4l-22-12.7c-1.6-0.9-3.5-0.9-5.1 0l-22 12.7c-1.6 0.9-2.6 2.6-2.6 4.4z"/>
							<path id="&lt;Compound Path&gt;" fill-rule="evenodd" class="s2" d="m102.9 495.8v25.4c0 1.9-1 3.6-2.6 4.5l-22 12.7c-1.6 0.9-3.5 0.9-5.1 0l-22-12.7c-1.6-0.9-2.6-2.6-2.6-4.5v-25.4c0-1.8 1-3.5 2.6-4.4l22-12.7c1.6-0.9 3.5-0.9 5.1 0l22 12.7c1.6 0.9 2.6 2.6 2.6 4.4zm-0.8 0c0-1.5-0.9-2.9-2.2-3.7l-22-12.7c-0.6-0.4-1.4-0.6-2.1-0.6-0.8 0-1.5 0.2-2.2 0.6l-22 12.7c-1.3 0.8-2.1 2.2-2.1 3.7v25.4c0 1.6 0.8 3 2.1 3.8l22 12.7c0.7 0.3 1.4 0.5 2.2 0.5 0.7 0 1.5-0.2 2.1-0.5l22-12.7c1.3-0.8 2.2-2.2 2.2-3.8z"/>
						</g>
					</g>
				</g>
				<g id="&lt;Group&gt;">
					<g id="&lt;Group&gt;">
						<g id="&lt;Group&gt;">
							<path id="&lt;Path&gt;" class="s3" d="m750 35.5v25.4c0 1.8 1 3.5 2.6 4.4l22 12.7c1.6 1 3.5 1 5.1 0l22-12.7c1.6-0.9 2.6-2.6 2.6-4.4v-25.4c0-1.9-1-3.6-2.6-4.5l-22-12.7c-1.6-0.9-3.5-0.9-5.1 0l-22 12.7c-1.6 0.9-2.6 2.6-2.6 4.5z"/>
							<path id="&lt;Compound Path&gt;" fill-rule="evenodd" class="s2" d="m804.3 35.5v25.4c0 1.8-1 3.5-2.6 4.4l-22 12.7c-1.6 1-3.5 1-5.1 0l-22-12.7c-1.6-0.9-2.6-2.6-2.6-4.4v-25.4c0-1.9 1-3.6 2.6-4.5l22-12.7c1.6-0.9 3.5-0.9 5.1 0l22 12.7c1.6 0.9 2.6 2.6 2.6 4.5zm-0.9 0c0-1.5-0.8-3-2.1-3.7l-22-12.7c-0.7-0.4-1.4-0.6-2.2-0.6-0.7 0-1.4 0.2-2.1 0.6l-22 12.7c-1.3 0.7-2.1 2.2-2.1 3.7v25.4c0 1.5 0.8 2.9 2.1 3.7l22 12.7c0.7 0.4 1.4 0.6 2.1 0.6 0.8 0 1.5-0.2 2.2-0.6l22-12.7c1.3-0.8 2.1-2.2 2.1-3.7z"/>
						</g>
					</g>
				</g>
				<g id="&lt;Group&gt;">
					<g id="&lt;Group&gt;">
						<g id="&lt;Group&gt;">
							<path id="&lt;Path&gt;" class="s3" d="m428.6 119.3v25.4c0 1.8 1 3.5 2.5 4.5l22.1 12.7c1.5 0.9 3.5 0.9 5.1 0l22-12.7c1.6-1 2.6-2.7 2.6-4.5v-25.4c0-1.8-1-3.5-2.6-4.5l-22-12.7c-1.6-0.9-3.6-0.9-5.1 0l-22.1 12.7c-1.5 1-2.5 2.7-2.5 4.5z"/>
							<path id="&lt;Compound Path&gt;" fill-rule="evenodd" class="s2" d="m482.9 119.3v25.4c0 1.8-1 3.5-2.6 4.5l-22 12.7c-1.6 0.9-3.6 0.9-5.1 0l-22.1-12.7c-1.5-1-2.5-2.7-2.5-4.5v-25.4c0-1.8 1-3.5 2.5-4.5l22.1-12.7c1.5-0.9 3.5-0.9 5.1 0l22 12.7c1.6 1 2.6 2.7 2.6 4.5zm-0.9 0c0-1.5-0.8-3-2.1-3.7l-22-12.7c-0.7-0.4-1.4-0.6-2.2-0.6-0.7 0-1.5 0.2-2.1 0.6l-22 12.7c-1.3 0.7-2.2 2.2-2.2 3.7v25.4c0 1.5 0.9 3 2.2 3.7l22 12.7c0.6 0.4 1.4 0.6 2.1 0.6 0.8 0 1.5-0.2 2.2-0.6l22-12.7c1.3-0.7 2.1-2.2 2.1-3.7z"/>
						</g>
					</g>
				</g>
				<g id="&lt;Group&gt;">
					<g id="&lt;Group&gt;">
						<g id="&lt;Group&gt;">
							<path id="&lt;Path&gt;" class="s3" d="m100.8 701.2v25.4c0 1.8 0.9 3.5 2.5 4.4l22 12.7c1.6 0.9 3.6 0.9 5.2 0l22-12.7c1.6-0.9 2.5-2.6 2.5-4.4v-25.4c0-1.9-0.9-3.6-2.5-4.5l-22-12.7c-1.6-0.9-3.6-0.9-5.2 0l-22 12.7c-1.6 0.9-2.5 2.6-2.5 4.5z"/>
							<path id="&lt;Compound Path&gt;" fill-rule="evenodd" class="s2" d="m155 701.2v25.4c0 1.8-0.9 3.5-2.5 4.4l-22 12.7c-1.6 0.9-3.6 0.9-5.2 0l-22-12.7c-1.6-0.9-2.5-2.6-2.5-4.4v-25.4c0-1.9 0.9-3.6 2.5-4.5l22-12.7c1.6-0.9 3.6-0.9 5.2 0l22 12.7c1.6 0.9 2.5 2.6 2.5 4.5zm-0.8 0c0-1.6-0.8-3-2.2-3.8l-22-12.7c-0.6-0.3-1.3-0.5-2.1-0.5-0.8 0-1.5 0.2-2.1 0.5l-22 12.7c-1.4 0.8-2.2 2.2-2.2 3.8v25.4c0 1.5 0.8 2.9 2.2 3.7l22 12.7c0.6 0.4 1.3 0.6 2.1 0.6 0.8 0 1.5-0.2 2.1-0.6l22-12.7c1.4-0.8 2.2-2.2 2.2-3.7z"/>
						</g>
					</g>
				</g>
			</g>
		</g>
	</g>
</svg>